# xmcd
#
# Track frame offsets: 
#        150
#        10132
#        20882
#        30998
#        43282
#        54317
#        65049
#        76205
#        88945
#        100545
#        111803
#        121926
#        132594
#        142837
#        155290
#        166557
#        178484
#        190408
#        202236
#        212984
#
# Disc length: 3004 seconds
#
# Revision: 2
# Processed by: cddbd v1.5.2PL0 Copyright (c) Steve Scherf et al.
# Submitted via: ExactAudioCopyFreeDBPlugin 1.0
#
DISCID=1b0bba14
DTITLE=The Drifters - 1988 - All Time Greatest Hits and More (1959-1965)
DTITLE=[CD1]
DYEAR=1988
DGENRE=Soul
TTITLE0=There Goes My Baby
TTITLE1=Oh My Love
TTITLE2=Baltimore
TTITLE3=Hey Senorita
TTITLE4=Dance With Me
TTITLE5=(If You Cry) True Love, True Love
TTITLE6=This Magic Moment
TTITLE7=Lonely Winds
TTITLE8=Nobody But Me
TTITLE9=Save The Last Dance For Me
TTITLE10=I Count The Tears
TTITLE11=Sometimes I Wonder
TTITLE12=Please Stay
TTITLE13=Room Full Of Tears
TTITLE14=Sweets For My Sweet
TTITLE15=Some Kind Of Wonderful
TTITLE16=Loneliness Or Happiness
TTITLE17=Mexican Divorce
TTITLE18=Somebody New Dancing With You
TTITLE19=Jackpot
EXTD=
EXTT0=
EXTT1=
EXTT2=
EXTT3=
EXTT4=
EXTT5=
EXTT6=
EXTT7=
EXTT8=
EXTT9=
EXTT10=
EXTT11=
EXTT12=
EXTT13=
EXTT14=
EXTT15=
EXTT16=
EXTT17=
EXTT18=
EXTT19=
PLAYORDER=
